<?xml version="1.0" encoding="utf-8"?>
<!-- Generator: Adobe Illustrator 18.0.0, SVG Export Plug-In . SVG Version: 6.00 Build 0)  -->
<!DOCTYPE svg PUBLIC "-//W3C//DTD SVG 1.1//EN" "http://www.w3.org/Graphics/SVG/1.1/DTD/svg11.dtd">
<svg version="1.1" id="Layer_1" xmlns="http://www.w3.org/2000/svg" xmlns:xlink="http://www.w3.org/1999/xlink" x="0px" y="0px"
	 viewBox="0 0 800 600" enable-background="new 0 0 800 600" xml:space="preserve">
<g>
	<g>
		<path fill="#58595B" d="M400.3,527.4c-125.6,0-227.8-102.2-227.8-227.8S274.7,71.7,400.3,71.7S628.2,174,628.2,299.6
			S526,527.4,400.3,527.4z M400.3,91.8c-114.5,0-207.7,93.2-207.7,207.7s93.2,207.7,207.7,207.7s207.7-93.2,207.7-207.7
			S514.9,91.8,400.3,91.8z"/>
	</g>
	<g>
		<rect x="470.9" y="294.6" fill="#58595B" width="28.7" height="10.1"/>
	</g>
	<g>
		<polygon fill="#58595B" points="475.9,349.9 442.2,349.9 442.2,339.8 465.9,339.8 465.9,259.3 442.2,259.3 442.2,249.3 
			475.9,249.3 		"/>
	</g>
	<g>
		<rect x="363.3" y="249.3" fill="#58595B" width="28.7" height="10.1"/>
	</g>
	<g>
		<polygon fill="#58595B" points="368.3,304.6 334.6,304.6 334.6,294.6 358.3,294.6 358.3,214.1 334.6,214.1 334.6,204 368.3,204 		
			"/>
	</g>
	<g>
		<polygon fill="#58595B" points="368.3,395.1 334.6,395.1 334.6,385.1 358.3,385.1 358.3,339.8 392.2,339.8 392.2,349.9 
			368.3,349.9 		"/>
	</g>
	<g>
		<rect x="283" y="182.6" fill="#55FFC8" width="52.9" height="52.9"/>
		<path fill="#58595B" d="M341,240.5h-63v-63h63V240.5z M288.1,230.5h42.9v-42.9h-42.9V230.5z"/>
	</g>
	<g>
		<rect x="283" y="273.1" fill="#FFFFFF" width="52.9" height="52.9"/>
		<path fill="#58595B" d="M341,331.1h-63v-63h63V331.1z M288.1,321h42.9v-42.9h-42.9V321z"/>
	</g>
	<g>
		<rect x="283" y="363.6" fill="#FFFFFF" width="52.9" height="52.9"/>
		<path fill="#58595B" d="M341,421.6h-63v-63h63V421.6z M288.1,411.5h42.9v-42.9h-42.9V411.5z"/>
	</g>
	<g>
		<rect x="392" y="318.4" fill="#55FFC8" width="52.9" height="52.9"/>
		<path fill="#58595B" d="M449.9,376.3h-63v-63h63V376.3z M397,366.3h42.9v-42.9H397V366.3z"/>
	</g>
	<g>
		<rect x="392" y="227.9" fill="#FFFFFF" width="52.9" height="52.9"/>
		<path fill="#58595B" d="M449.9,285.8h-63v-63h63V285.8z M397,275.7h42.9v-42.9H397V275.7z"/>
	</g>
	<g>
		<rect x="499.6" y="273.1" fill="#FFFFFF" width="52.9" height="52.9"/>
		<path fill="#58595B" d="M557.5,331.1h-63v-63h63V331.1z M504.6,321h42.9v-42.9h-42.9V321z"/>
	</g>
</g>
<g>
</g>
<g>
</g>
<g>
</g>
<g>
</g>
<g>
</g>
</svg>
